HIERARCHY
ROOT root
{
	OFFSET	0	13.1	24.9
	CHANNELS 6  Xposition Yposition Zposition Xrotation Yrotation Zrotation
	JOINT spine_1
	{
		OFFSET	0	9.99999	0
		CHANNELS 3  Xrotation Yrotation Zrotation
		JOINT spine_2
		{
			OFFSET	0	112	-10
			CHANNELS 3  Xrotation Yrotation Zrotation
			JOINT spine_3
			{
				OFFSET	0	206.5	19.3
				CHANNELS 3  Xrotation Yrotation Zrotation
				JOINT spine_4
				{
					OFFSET	0	110.4	14.6
					CHANNELS 3  Xrotation Yrotation Zrotation
					JOINT neck_1
					{
						OFFSET	0	71.8	-50.3
						CHANNELS 3  Xrotation Yrotation Zrotation
						JOINT neck_2
						{
							OFFSET	0	86.2	-25.8
							CHANNELS 3  Xrotation Yrotation Zrotation
							JOINT head_ee
							{
								OFFSET	0	179.8	-8.7
								CHANNELS 3  Xrotation Yrotation Zrotation
								End Site
								{
									OFFSET	1	0	0
								}
							}
						}
					}
					JOINT left_clavicle
					{
						OFFSET	-43.2	22.4	-70.8
						CHANNELS 3  Xrotation Yrotation Zrotation
						JOINT left_shoulder
						{
							OFFSET	-93.9	-5.79999	48.7
							CHANNELS 3  Xrotation Yrotation Zrotation
							JOINT left_elbow
							{
								OFFSET	-291.4	-30.8	15.2
								CHANNELS 3  Xrotation Yrotation Zrotation
								JOINT left_lowarm_twist
								{
									OFFSET	-110.7	-3.89999	13.6
									CHANNELS 3  Xrotation Yrotation Zrotation
									JOINT left_hand
									{
										OFFSET	-110.7	-3.89999	13.6
										CHANNELS 3  Xrotation Yrotation Zrotation
										JOINT left_ee
										{
											OFFSET	-80.8	-5.10001	12.1
											CHANNELS 3  Xrotation Yrotation Zrotation
											End Site
											{
												OFFSET	1	0	0
											}
										}
									}
								}
							}
						}
					}
					JOINT right_clavicle
					{
						OFFSET	43.2	22.4	-70.8
						CHANNELS 3  Xrotation Yrotation Zrotation
						JOINT right_shoulder
						{
							OFFSET	93.9	-5.79999	48.7
							CHANNELS 3  Xrotation Yrotation Zrotation
							JOINT right_elbow
							{
								OFFSET	291.4	-30.8	15.2
								CHANNELS 3  Xrotation Yrotation Zrotation
								JOINT right_lowarm_twist
								{
									OFFSET	110.7	-3.89999	13.6
									CHANNELS 3  Xrotation Yrotation Zrotation
									JOINT right_hand
									{
										OFFSET	110.7	-3.89999	13.6
										CHANNELS 3  Xrotation Yrotation Zrotation
										JOINT right_ee
										{
											OFFSET	80.8	-5.10001	12.1
											CHANNELS 3  Xrotation Yrotation Zrotation
											End Site
											{
												OFFSET	1	0	0
											}
										}
									}
								}
							}
						}
					}
				}
			}
		}
	}
	JOINT left_hip
	{
		OFFSET	-82.8	-127.5	0.300001
		CHANNELS 3  Xrotation Yrotation Zrotation
		JOINT left_knee
		{
			OFFSET	-28.2	-396.7	2.2
			CHANNELS 3  Xrotation Yrotation Zrotation
			JOINT left_ankle
			{
				OFFSET	-11.7	-411.3	35.4
				CHANNELS 3  Xrotation Yrotation Zrotation
				JOINT left_toes
				{
					OFFSET	0	-60	-88.6
					CHANNELS 3  Xrotation Yrotation Zrotation
					JOINT left_foot_ee
					{
						OFFSET	-22.5	-16.5	-42.2
						CHANNELS 3  Xrotation Yrotation Zrotation
						End Site
						{
							OFFSET	1	0	0
						}
					}
				}
			}
		}
	}
	JOINT right_hip
	{
		OFFSET	82.8	-127.5	0.300001
		CHANNELS 3  Xrotation Yrotation Zrotation
		JOINT right_knee
		{
			OFFSET	28.2	-396.7	2.2
			CHANNELS 3  Xrotation Yrotation Zrotation
			JOINT right_ankle
			{
				OFFSET	11.7	-411.3	35.4
				CHANNELS 3  Xrotation Yrotation Zrotation
				JOINT right_toes
				{
					OFFSET	0	-60	-88.6
					CHANNELS 3  Xrotation Yrotation Zrotation
					JOINT right_foot_ee
					{
						OFFSET	22.5	-16.5	-42.2
						CHANNELS 3  Xrotation Yrotation Zrotation
						End Site
						{
							OFFSET	1	0	0
						}
					}
				}
			}
		}
	}
}
MOTION
Frames: 16
Frame Time: 0.02
3457.08 669.778 -162.552 -166.812 -55.2506 -172.998 4.80313 0.457488 0.745615 4.80335 0.409117 0.773213 4.80868 0.307245 0.819043 4.808 0.432738 0.760246 -5.34101 6.64165 0.675282 -5.31724 11.7323 1.86769 -0.0 0.0 -0.0 2.89108 17.2627 6.4908 -32.6053 -13.0957 70.2127 0.221728 -6.26826 0.0121409 30.5277 0.0497435 -3.8536 1.30438 14.7458 14.293 -0.0 0.0 -0.0 10.8018 18.267 -21.3206 -2.48029 7.9164 -59.7616 1.75125 40.9386 -0.653742 37.4972 0.225528 4.70032 1.64472 15.6355 -4.38001 0.0 0.0 0.0 34.6852 -1.61752 -3.467 -4.47402 0.15818 0.668234 -13.8152 22.3447 2.12853 -24.5374 0.0 0.0 -0.0 0.0 -0.0 19.1182 -42.0991 21.7386 -15.2961 -0.321999 -2.31831 28.3327 -24.3438 3.89751 35.2073 -0.0 -0.0 0.0 0.0 0.0 
3480.78 668.18 -162.724 -166.999 -56.6939 -172.998 4.86757 0.401892 0.586561 4.86768 0.363753 0.610945 4.87145 0.283637 0.652011 4.87106 0.383049 0.599036 -5.93741 5.84408 1.26857 -5.9249 9.86429 2.3714 -0.0 0.0 -0.0 3.2325 15.4946 6.96847 -33.1525 -14.0142 71.2561 0.201626 -5.70391 0.0100445 29.0291 0.0953404 -3.66762 1.64471 10.6522 15.0909 -0.0 0.0 -0.0 10.0007 18.0065 -19.538 -3.7977 6.33704 -60.4148 1.75833 41.053 -0.658386 39.5685 0.327009 4.94496 2.11674 20.2392 -5.42099 0.0 0.0 0.0 35.7766 0.0812861 -2.40574 -8.07106 0.247208 1.21298 -10.2158 24.1943 1.58099 -20.3927 0.0 0.0 -0.0 0.0 -0.0 16.8242 -38.0508 21.3974 -18.5942 -0.309719 -2.82413 16.2403 -19.4561 2.3046 30.895 -0.0 -0.0 0.0 0.0 0.0 
3501.33 669.44 -166.233 -165.436 -57.7628 -171.678 5.00464 0.511198 0.441185 5.00461 0.482089 0.47282 5.0086 0.419747 0.528942 5.00855 0.498015 0.456014 -5.73523 5.24246 2.19976 -5.7179 8.04782 3.18655 -0.0 0.0 -0.0 3.95229 12.8461 8.07913 -32.4697 -14.3356 71.4865 0.199083 -5.63243 0.00979326 28.4089 0.112785 -3.59031 1.86192 3.76125 14.0132 -0.0 0.0 -0.0 9.32827 16.0656 -18.1534 -5.9118 5.64871 -60.7313 1.71772 40.3912 -0.631887 42.4636 0.483569 5.28051 2.59255 23.8438 -6.81946 0.0 0.0 0.0 35.9063 1.05306 -0.886533 -7.43207 0.233895 1.11582 -6.15605 25.9061 0.955565 -17.4591 0.0 0.0 -0.0 0.0 -0.0 16.071 -32.2415 21.1684 -21.9663 -0.267096 -3.33971 2.01734 -8.61869 0.293749 25.1105 -0.0 -0.0 0.0 0.0 0.0 
3522.83 668.906 -165.963 -164.245 -58.438 -170.791 5.17507 0.291896 0.474408 5.17516 0.261117 0.49202 5.17731 0.199622 0.520015 5.17704 0.279243 0.481964 -5.12027 4.58655 3.79578 -5.08074 5.59033 4.66078 -0.0 0.0 -0.0 3.71675 13.7562 7.70755 -31.2577 -15.8472 71.302 0.203831 -5.76587 0.0102648 27.381 0.139846 -3.46181 2.0838 -3.11583 12.7988 -0.0 0.0 -0.0 8.69326 16.8005 -16.7124 -7.51441 5.63456 -62.3496 1.60381 38.4635 -0.559534 44.7988 0.622109 5.54521 2.63107 25.3433 -6.32436 0.0 0.0 0.0 35.1689 2.60326 0.359252 -5.73708 0.193338 0.858879 -1.48847 24.5098 0.227424 -15.3876 0.0 0.0 -0.0 0.0 -0.0 14.5931 -22.7048 19.8713 -26.33 -0.16705 -4.00173 -7.31448 4.73397 -1.11645 18.7841 -0.0 -0.0 0.0 0.0 0.0 
3534.19 668.386 -161.72 -163.401 -58.6917 -169.174 5.1215 0.351797 0.265467 5.12147 0.334192 0.287315 5.12316 0.296637 0.325946 5.12318 0.344391 0.275007 -4.71558 3.75509 6.00333 -4.61881 2.34832 6.7654 -0.0 0.0 -0.0 3.79873 12.7273 7.81943 -30.2508 -18.9264 71.0911 0.277353 -7.82321 0.0189645 25.4192 0.185077 -3.21529 2.3524 -11.6567 10.9671 -0.0 0.0 -0.0 8.53597 15.3151 -16.4507 -9.43493 6.15647 -61.9464 1.64534 39.1788 -0.585573 45.9569 0.694806 5.67437 3.18578 27.2575 -8.92661 0.0 0.0 0.0 35.5196 2.52545 -0.347701 -5.70932 0.19261 0.854681 3.45293 27.4051 -0.530169 -13.1984 0.0 0.0 -0.0 0.0 -0.0 14.1495 -13.6533 17.1899 -31.5749 0.019473 -4.78477 -12.3589 7.58609 -1.92529 17.7196 -0.0 -0.0 0.0 0.0 0.0 
3554.03 673.71 -163.588 -162.348 -57.6382 -167.899 5.41994 0.288273 -0.14806 5.4199 0.29711 -0.129417 5.41927 0.310202 -0.0937946 5.41938 0.291496 -0.141609 -4.75544 3.88411 7.2223 -4.6137 1.66439 8.03241 -0.0 0.0 -0.0 4.79352 12.9611 9.49106 -32.8209 -21.3769 69.5031 0.362356 -10.1765 0.0322644 27.7645 0.130019 -3.50981 2.91935 -18.4354 11.6591 -0.0 0.0 -0.0 8.09588 14.3355 -15.5418 -13.4636 9.57049 -61.1121 1.6483 39.2291 -0.587439 49.0332 0.900468 6.01012 2.53095 26.4376 -5.13053 0.0 0.0 0.0 34.7422 3.80329 -0.427926 -5.31346 0.182015 0.794854 6.25163 22.2499 -0.927571 -11.7197 0.0 0.0 -0.0 0.0 -0.0 16.2978 -11.9357 17.6477 -34.1279 0.136045 -5.15911 -19.0017 11.626 -3.0455 21.2098 -0.0 -0.0 0.0 0.0 0.0 
3583.51 678.994 -160.654 -164.702 -58.7111 -170.098 5.25187 0.464193 -0.147928 5.25176 0.472666 -0.11809 5.2509 0.48341 -0.0606 5.2512 0.467773 -0.136187 -4.55218 3.11031 7.59656 -4.39118 -0.0692299 8.29509 -0.0 0.0 -0.0 4.84381 10.9283 9.57348 -30.9825 -21.2897 68.4574 0.515418 -14.3231 0.0647616 28.3064 0.115586 -3.57753 3.74241 -20.9416 15.9713 -0.0 0.0 -0.0 7.09153 12.4416 -13.4712 -14.7679 9.71973 -63.4644 1.35965 33.9596 -0.415179 48.9734 0.896303 6.0037 1.51839 20.9689 -1.12891 0.0 0.0 0.0 30.4111 0.415475 1.98181 -2.32483 0.0887171 0.345729 8.25988 20.3932 -1.20911 -12.0559 0.0 0.0 -0.0 0.0 -0.0 16.2037 -13.0355 19.706 -37.1683 0.296515 -5.59777 -18.8866 19.1691 -3.21106 17.495 -0.0 -0.0 0.0 0.0 0.0 
3609.94 685.386 -156.251 -164.406 -62.2614 -168.646 5.31087 0.333052 -0.424962 5.3109 0.359418 -0.402908 5.30836 0.404755 -0.357337 5.30835 0.343242 -0.416775 -3.42 1.20958 8.14561 -3.21381 -4.11397 8.63342 -0.0 0.0 -0.0 5.52004 9.02798 10.7625 -31.755 -22.6491 66.4637 0.72687 -19.8024 0.126877 27.8688 0.127292 -3.52285 4.13659 -22.2399 17.9552 -0.0 0.0 -0.0 6.81376 8.87187 -13.0396 -18.5152 7.43787 -63.7384 1.11448 28.9015 -0.287211 50.549 1.00839 6.17142 0.90949 14.8856 0.221948 0.0 0.0 0.0 28.3164 -0.508926 3.1817 -1.55453 0.0608793 0.23079 13.7227 12.5152 -1.93112 -10.1275 0.0 0.0 -0.0 0.0 -0.0 16.1225 -12.6664 19.0925 -40.9608 0.52902 -6.13224 -21.3216 23.1286 -3.77357 15.3642 -0.0 -0.0 0.0 0.0 0.0 
3634.61 687.597 -149.655 -164.559 -62.2691 -167.939 5.42337 0.403348 -0.56734 5.42345 0.438631 -0.540525 5.41926 0.49883 -0.485524 5.41918 0.415892 -0.55821 -2.2841 0.254623 6.89482 -2.1219 -4.98734 7.27561 -0.0 0.0 -0.0 5.57037 9.84295 10.8458 -33.2832 -24.6599 63.3518 1.02546 -26.9292 0.245527 28.062 0.122175 -3.547 4.28633 -22.22 18.9924 -0.0 0.0 -0.0 6.6209 6.06313 -12.7332 -23.8178 11.0772 -63.3374 1.09769 28.535 -0.279144 52.0359 1.11839 6.32687 0.57184 11.4274 1.00003 0.0 0.0 0.0 25.7771 -0.526267 2.4435 -0.486431 0.0197236 0.0720423 12.0782 7.3411 -1.70415 -9.6556 0.0 0.0 -0.0 0.0 -0.0 17.6954 -13.1236 19.2904 -45.4692 0.850855 -6.74631 -18.4217 25.4447 -3.34512 15.2935 -0.0 -0.0 0.0 0.0 0.0 
3645.45 691.269 -147.613 -164.823 -62.4516 -167.469 5.30633 0.326192 -0.735485 5.30655 0.37233 -0.713239 5.30173 0.454549 -0.663873 5.30128 0.344001 -0.727326 -3.15443 1.37366 6.63283 -3.02108 -2.66679 7.09716 -0.0 0.0 -0.0 6.22392 8.14654 12.0381 -32.4687 -24.4264 60.2301 1.2559 -31.886 0.358786 29.542 0.0802847 -3.7314 4.08494 -20.8073 18.3911 -0.0 0.0 -0.0 6.40598 4.10261 -12.3462 -24.5056 13.1934 -62.8273 1.04841 27.4444 -0.256011 53.8105 1.25491 6.5086 0.320093 8.92357 1.62851 0.0 0.0 0.0 24.0068 -1.28319 1.62599 1.37399 -0.059013 -0.202578 9.69445 3.21228 -1.38406 -9.19253 0.0 0.0 -0.0 0.0 -0.0 18.8621 -12.9574 19.3833 -48.5171 1.09549 -7.14653 -16.467 26.5242 -3.02643 14.7133 -0.0 -0.0 0.0 0.0 0.0 
3657.85 691.339 -142.303 -165.977 -64.2071 -167.725 5.14989 0.24515 -0.82122 5.15021 0.296908 -0.803958 5.14578 0.392531 -0.761857 5.14507 0.267288 -0.814285 -2.77988 1.27406 5.82774 -2.67698 -2.25436 6.26183 -0.0 0.0 -0.0 6.61774 5.79498 12.8042 -31.6824 -25.5587 58.8533 1.28947 -32.5675 0.376684 30.37 0.05477 -3.83409 3.83517 -21.4821 16.314 -0.0 0.0 -0.0 6.13644 1.3277 -11.8645 -24.5909 13.9103 -62.9052 0.975421 25.7891 -0.223309 53.5082 1.23125 6.47794 0.238276 8.26147 1.89886 0.0 0.0 0.0 23.1052 -2.98782 1.08259 -0.378529 0.0154013 0.0560475 10.2128 0.306851 -1.46331 -7.48615 0.0 0.0 -0.0 0.0 -0.0 20.0498 -8.94052 17.3296 -54.4164 1.62816 -7.88226 -14.3933 24.6704 -2.58324 16.95 -0.0 -0.0 0.0 0.0 0.0 
3672.37 692.778 -137.392 -166.963 -65.9526 -167.545 4.79842 0.163977 -0.969808 4.79892 0.225353 -0.95741 4.79477 0.345829 -0.920775 4.79364 0.196076 -0.963832 -2.87984 2.29203 5.02843 -2.81021 0.228976 5.56623 -0.0 0.0 -0.0 6.83261 4.10129 13.2363 -31.1256 -26.6264 57.8887 1.30653 -32.9101 0.385913 31.6022 0.0140625 -3.9862 3.44382 -22.2024 13.2884 -0.0 0.0 -0.0 5.75503 -2.38017 -11.1759 -24.6437 15.529 -61.9625 0.878376 23.5147 -0.182823 53.0453 1.19535 6.43075 0.134877 7.53962 2.28978 0.0 0.0 0.0 22.1366 -4.80093 0.165788 -3.25301 0.120202 0.484696 10.0048 -3.51932 -1.45068 -5.04932 0.0 0.0 -0.0 0.0 -0.0 22.5799 -3.41326 13.4869 -61.6528 2.38108 -8.70498 -11.5632 20.739 -1.98376 20.1018 -0.0 -0.0 0.0 0.0 0.0 
3684.64 695.325 -136.037 -166.06 -67.0895 -166.131 4.88554 0.00580977 -1.15721 4.88628 0.0794294 -1.1545 4.88407 0.224498 -1.13524 4.88228 0.0424022 -1.15645 -3.60547 3.07579 5.00107 -3.53857 1.74773 5.63896 -0.0 0.0 -0.0 7.7066 1.97585 14.9668 -28.4325 -26.2291 56.5508 1.13192 -29.2794 0.29569 34.0845 -0.0778473 -4.28985 3.18506 -21.688 11.8217 -0.0 0.0 -0.0 5.23315 -6.8951 -10.2425 -24.8402 19.1178 -60.0164 0.769847 20.8748 -0.141815 51.109 1.04934 6.2303 0.361165 8.39153 1.12427 0.0 0.0 0.0 20.967 -3.95889 0.339331 -1.47948 0.0580842 0.219612 7.48399 -4.30927 -1.09809 -3.96383 0.0 0.0 -0.0 0.0 -0.0 22.5858 -2.68736 11.9085 -62.3542 2.45949 -8.77958 -7.86162 19.1719 -1.32126 21.1005 -0.0 -0.0 0.0 0.0 0.0 
3694.89 698.693 -137.022 -164.358 -67.8764 -164.107 4.90812 0.0528605 -1.43674 4.90926 0.144168 -1.43047 4.90473 0.323079 -1.40095 4.902 0.0977937 -1.43439 -4.01817 3.16545 4.78401 -3.9571 2.12068 5.42503 -0.0 0.0 -0.0 8.46734 0.141719 16.5238 -25.7598 -27.6683 56.0872 0.990936 -26.145 0.230102 35.503 -0.136254 -4.4615 2.58199 -20.1359 8.56467 -0.0 0.0 -0.0 4.75864 -12.9734 -9.43243 -26.5893 24.5586 -57.093 0.698432 19.0848 -0.11741 49.1178 0.906382 6.0192 0.553994 10.114 0.557644 0.0 0.0 0.0 20.7105 -3.2814 1.03442 -0.308558 0.0125824 0.0456796 6.6672 -4.55258 -0.981865 -2.66667 0.0 0.0 -0.0 0.0 -0.0 23.193 -1.73665 10.245 -62.3097 2.45448 -8.77487 -4.60033 16.1146 -0.748294 21.9868 -0.0 -0.0 0.0 0.0 0.0 
3706.87 699.946 -140.241 -164.422 -69.1134 -162.73 4.67435 -0.122579 -2.14532 4.67691 0.01415 -2.14877 4.67443 0.293088 -2.12875 4.66811 -0.0467063 -2.14831 -4.88295 3.89812 5.90392 -4.78964 2.70723 6.68665 -0.0 0.0 -0.0 9.21016 0.898838 17.9995 -24.7163 -31.3857 55.2735 1.03511 -27.1465 0.249915 37.6252 -0.231538 -4.71553 2.02785 -18.3517 5.70966 -0.0 0.0 -0.0 3.92918 -16.0726 -8.09376 -29.4551 29.3962 -54.032 0.729451 19.8672 -0.127752 51.3073 1.06398 6.25105 0.114479 8.20522 2.71142 0.0 0.0 0.0 19.6147 -4.73905 0.529836 0.0920616 -0.00380172 -0.0136161 8.40194 -6.6568 -1.24098 -0.461932 0.0 0.0 -0.0 0.0 -0.0 24.4686 -3.74597 10.1182 -66.0833 2.89141 -9.15993 -2.85941 16.9036 -0.466293 22.1472 -0.0 -0.0 0.0 0.0 0.0 
3725.24 702.769 -137.853 -164.642 -70.8136 -162.469 4.90433 -0.18943 -2.37853 4.90747 -0.0377387 -2.38575 4.90645 0.262798 -2.37154 4.89862 -0.114931 -2.38328 -6.25482 3.68397 6.32658 -6.14617 2.16986 7.06926 -0.0 0.0 -0.0 9.69425 -1.17048 19.0725 -20.7304 -32.1294 55.9462 0.973683 -25.7491 0.222553 38.8361 -0.290113 -4.85887 1.35533 -16.3976 2.10037 -0.0 0.0 -0.0 3.60164 -19.5052 -7.63104 -30.9846 29.6399 -52.146 0.686545 18.7829 -0.113553 49.2971 0.918948 6.0384 0.192666 8.1832 2.17365 0.0 0.0 0.0 17.87 -4.24146 0.721866 0.286274 -0.0118937 -0.0423208 8.95849 -8.56201 -1.3328 -1.12862 0.0 0.0 -0.0 0.0 -0.0 25.0707 -3.06563 9.20494 -67.9991 3.12276 -9.34429 3.59897 11.5568 0.554645 23.0665 -0.0 -0.0 0.0 0.0 0.0 
